<svg id="Layer_1" data-name="Layer 1" xmlns="http://www.w3.org/2000/svg" viewBox="0 0 512 512"><defs><style>.cls-1{fill:#d9e4e8;}.cls-2{fill:#79d3d3;}.cls-3{fill:#141f38;}.cls-4{opacity:0.05;}.cls-5{fill:#231f20;}</style></defs><title>gameboy-filled</title><rect class="cls-1" x="89.6" y="12.8" width="332.8" height="486.4" rx="51.2" ry="51.2"/><rect class="cls-2" x="140.8" y="64" width="230.4" height="179.2" rx="19.2" ry="19.2"/><path class="cls-3" d="M371.2,0H140.8a64,64,0,0,0-64,64V448a64,64,0,0,0,64,64H371.2a64,64,0,0,0,64-64V64A64,64,0,0,0,371.2,0Zm38.4,76.8V448a38.44,38.44,0,0,1-38.4,38.4H140.8A38.44,38.44,0,0,1,102.4,448V64a38.44,38.44,0,0,1,38.4-38.4H371.2A38.44,38.44,0,0,1,409.6,64Z"/><path class="cls-3" d="M204.8,345.6a12.8,12.8,0,1,0,0-25.6H192V307.2a12.8,12.8,0,1,0-25.6,0V320H153.6a12.8,12.8,0,1,0,0,25.6h12.8v12.8a12.8,12.8,0,1,0,25.6,0V345.6Z"/><circle class="cls-3" cx="307.2" cy="332.8" r="12.8"/><circle class="cls-3" cx="332.8" cy="307.2" r="12.8"/><path class="cls-3" d="M352,51.2H160a32,32,0,0,0-32,32V224a32,32,0,0,0,32,32H352a32,32,0,0,0,32-32V83.2A32,32,0,0,0,352,51.2ZM358.4,224a6.41,6.41,0,0,1-6.4,6.4H160a6.41,6.41,0,0,1-6.4-6.4V83.2a6.41,6.41,0,0,1,6.4-6.4H352a6.41,6.41,0,0,1,6.4,6.4Z"/><path class="cls-3" d="M230.4,422.4H217.6a12.8,12.8,0,0,0,0,25.6h12.8a12.8,12.8,0,0,0,0-25.6Z"/><path class="cls-3" d="M294.4,422.4H281.6a12.8,12.8,0,0,0,0,25.6h12.8a12.8,12.8,0,0,0,0-25.6Z"/><circle class="cls-3" cx="332.8" cy="358.4" r="12.8"/><circle class="cls-3" cx="358.4" cy="332.8" r="12.8"/><g class="cls-4"><path class="cls-5" d="M352,256a32,32,0,0,0,32-32V83.2a31.9,31.9,0,0,0-9.37-22.63L179.2,256Z"/></g></svg>